<svg width="123" height="69" viewBox="0 0 123 69" fill="none" xmlns="http://www.w3.org/2000/svg">
<path d="M10.7637 11.4688H12.3633L23.2529 39.0107L34.1426 11.4688H35.7217L24.0527 41H22.4531L10.7637 11.4688ZM13.9424 11.4688H15.5215L24.2783 33.6172L23.4375 35.5039L13.9424 11.4688ZM17.1211 11.4688H18.7207L25.8574 29.5771L25.0781 31.6074L17.1211 11.4688ZM20.2998 11.4688H21.8789L27.416 25.4756L26.6367 27.5469L20.2998 11.4688ZM43.6582 11.4688H45.2578L33.5684 41H31.9893L43.6582 11.4688ZM40.5 11.4688H42.0791L30.3896 41H28.8105L40.5 11.4688ZM37.3008 11.4688H38.9004L27.2109 41H25.6318L37.3008 11.4688ZM56.9678 22.0713C55.8193 23.2197 55.2451 24.6074 55.2451 26.2344C55.2451 27.8613 55.8193 29.2559 56.9678 30.418C58.1299 31.5664 59.5244 32.1406 61.1514 32.1406C62.7783 32.1406 64.166 31.5664 65.3145 30.418C66.4766 29.2559 67.0576 27.8613 67.0576 26.2344C67.0576 24.6074 66.4766 23.2197 65.3145 22.0713C64.166 20.9092 62.7783 20.3281 61.1514 20.3281C59.5244 20.3281 58.1299 20.9092 56.9678 22.0713ZM55.9219 31.4639C54.4863 30.0146 53.7686 28.2715 53.7686 26.2344C53.7686 24.1973 54.4863 22.4609 55.9219 21.0254C57.3711 19.5762 59.1143 18.8516 61.1514 18.8516C63.1885 18.8516 64.9248 19.5762 66.3604 21.0254C67.8096 22.4609 68.5342 24.1973 68.5342 26.2344C68.5342 28.2715 67.8096 30.0146 66.3604 31.4639C64.9248 32.8994 63.1885 33.6172 61.1514 33.6172C59.1143 33.6172 57.3711 32.8994 55.9219 31.4639ZM54.876 19.9795C53.1533 21.7158 52.292 23.8008 52.292 26.2344C52.292 28.668 53.1533 30.7529 54.876 32.4893C56.6123 34.2256 58.7041 35.0938 61.1514 35.0938C63.5986 35.0938 65.6836 34.2256 67.4062 32.4893C69.1426 30.7529 70.0107 28.668 70.0107 26.2344C70.0107 23.8008 69.1426 21.7158 67.4062 19.9795C65.6836 18.2432 63.5986 17.375 61.1514 17.375C58.7041 17.375 56.6123 18.2432 54.876 19.9795ZM52.1895 31.4229C51.2734 29.8369 50.8154 28.1074 50.8154 26.2344C50.8154 24.3613 51.2734 22.6318 52.1895 21.0459C53.1191 19.46 54.377 18.209 55.9629 17.293C57.5488 16.3633 59.2783 15.8984 61.1514 15.8984C63.0244 15.8984 64.7539 16.3633 66.3398 17.293C67.9258 18.209 69.1768 19.46 70.0928 21.0459C71.0225 22.6318 71.4873 24.3613 71.4873 26.2344C71.4873 28.1074 71.0225 29.8369 70.0928 31.4229C69.1768 33.0088 67.9258 34.2666 66.3398 35.1963C64.7539 36.1123 63.0244 36.5703 61.1514 36.5703C59.2783 36.5703 57.5488 36.1123 55.9629 35.1963C54.377 34.2666 53.1191 33.0088 52.1895 31.4229ZM50.2617 21.6611C49.6465 23.1104 49.3389 24.6348 49.3389 26.2344C49.3389 27.834 49.6465 29.3652 50.2617 30.8281C50.8906 32.2773 51.7314 33.5352 52.7842 34.6016C53.8506 35.6543 55.1084 36.4951 56.5576 37.124C58.0205 37.7393 59.5518 38.0469 61.1514 38.0469C62.751 38.0469 64.2754 37.7393 65.7246 37.124C67.1875 36.4951 68.4453 35.6543 69.498 34.6016C70.5645 33.5352 71.4053 32.2773 72.0205 30.8281C72.6494 29.3652 72.9639 27.834 72.9639 26.2344C72.9639 24.6348 72.6494 23.1104 72.0205 21.6611C71.4053 20.1982 70.5645 18.9404 69.498 17.8877C68.4453 16.8213 67.1875 15.9805 65.7246 15.3652C64.2754 14.7363 62.751 14.4219 61.1514 14.4219C59.5518 14.4219 58.0205 14.7363 56.5576 15.3652C55.1084 15.9805 53.8506 16.8213 52.7842 17.8877C51.7314 18.9404 50.8906 20.1982 50.2617 21.6611ZM48.9082 31.4023C48.2109 29.7617 47.8623 28.0391 47.8623 26.2344C47.8623 24.4297 48.2109 22.707 48.9082 21.0664C49.6191 19.4258 50.5625 18.0176 51.7383 16.8418C52.9277 15.6523 54.3428 14.709 55.9834 14.0117C57.624 13.3008 59.3467 12.9453 61.1514 12.9453C62.9561 12.9453 64.6787 13.3008 66.3193 14.0117C67.96 14.709 69.3682 15.6523 70.5439 16.8418C71.7334 18.0176 72.6768 19.4258 73.374 21.0664C74.085 22.707 74.4404 24.4297 74.4404 26.2344C74.4404 28.0391 74.085 29.7617 73.374 31.4023C72.6768 33.043 71.7334 34.458 70.5439 35.6475C69.3682 36.8232 67.96 37.7666 66.3193 38.4775C64.6787 39.1748 62.9561 39.5234 61.1514 39.5234C59.3467 39.5234 57.624 39.1748 55.9834 38.4775C54.3428 37.7666 52.9277 36.8232 51.7383 35.6475C50.5625 34.458 49.6191 33.043 48.9082 31.4023ZM47.5547 20.5127C46.7754 22.3311 46.3857 24.2383 46.3857 26.2344C46.3857 28.2305 46.7754 30.1445 47.5547 31.9766C48.334 33.7949 49.3799 35.3672 50.6924 36.6934C52.0186 38.0059 53.5908 39.0518 55.4092 39.8311C57.2412 40.6104 59.1553 41 61.1514 41C63.1475 41 65.0547 40.6104 66.873 39.8311C68.7051 39.0518 70.2773 38.0059 71.5898 36.6934C72.916 35.3672 73.9688 33.7949 74.748 31.9766C75.5273 30.1445 75.917 28.2305 75.917 26.2344C75.917 24.2383 75.5273 22.3311 74.748 20.5127C73.9688 18.6807 72.916 17.1084 71.5898 15.7959C70.2773 14.4697 68.7051 13.417 66.873 12.6377C65.0547 11.8584 63.1475 11.4688 61.1514 11.4688C59.1553 11.4688 57.2412 11.8584 55.4092 12.6377C53.5908 13.417 52.0186 14.4697 50.6924 15.7959C49.3799 17.1084 48.334 18.6807 47.5547 20.5127ZM46.2012 32.5508C45.3398 30.541 44.9092 28.4355 44.9092 26.2344C44.9092 24.0332 45.3398 21.9346 46.2012 19.9385C47.0625 17.9287 48.2178 16.1992 49.667 14.75C51.1162 13.3008 52.8389 12.1455 54.835 11.2842C56.8447 10.4229 58.9502 9.99219 61.1514 9.99219C63.3525 9.99219 65.4512 10.4229 67.4473 11.2842C69.457 12.1455 71.1865 13.3008 72.6357 14.75C74.085 16.1992 75.2402 17.9287 76.1016 19.9385C76.9629 21.9346 77.3936 24.0332 77.3936 26.2344C77.3936 28.4355 76.9629 30.541 76.1016 32.5508C75.2402 34.5469 74.085 36.2695 72.6357 37.7188C71.1865 39.168 69.457 40.3232 67.4473 41.1846C65.4512 42.0459 63.3525 42.4766 61.1514 42.4766C58.9502 42.4766 56.8447 42.0459 54.835 41.1846C52.8389 40.3232 51.1162 39.168 49.667 37.7188C48.2178 36.2695 47.0625 34.5469 46.2012 32.5508ZM105.161 21.6406L103.972 22.543C102.782 21.0664 101.251 20.3281 99.3779 20.3281C97.751 20.3281 96.3564 20.9092 95.1943 22.0713C94.0459 23.2197 93.4717 24.6074 93.4717 26.2344C93.4717 27.8613 94.0459 29.2559 95.1943 30.418C96.3564 31.5664 97.751 32.1406 99.3779 32.1406C100.294 32.1406 101.148 31.9424 101.941 31.5459C102.748 31.1494 103.432 30.6025 103.992 29.9053L105.141 30.8691C104.457 31.7305 103.609 32.4072 102.598 32.8994C101.586 33.3779 100.513 33.6172 99.3779 33.6172C97.3408 33.6172 95.5977 32.8994 94.1484 31.4639C92.7129 30.0146 91.9951 28.2715 91.9951 26.2344C91.9951 24.1973 92.7129 22.4609 94.1484 21.0254C95.5977 19.5762 97.3408 18.8516 99.3779 18.8516C100.526 18.8516 101.606 19.1045 102.618 19.6104C103.63 20.1025 104.478 20.7793 105.161 21.6406ZM107.458 19.7949L106.289 20.6973C105.469 19.6582 104.45 18.8447 103.233 18.2568C102.03 17.6689 100.745 17.375 99.3779 17.375C96.9307 17.375 94.8389 18.2432 93.1025 19.9795C91.3799 21.7158 90.5186 23.8008 90.5186 26.2344C90.5186 28.668 91.3799 30.7529 93.1025 32.4893C94.8389 34.2256 96.9307 35.0938 99.3779 35.0938C100.745 35.0938 102.037 34.7998 103.254 34.2119C104.471 33.6104 105.489 32.79 106.31 31.751L107.438 32.6943C106.48 33.8975 105.298 34.8477 103.89 35.5449C102.481 36.2285 100.978 36.5703 99.3779 36.5703C97.5049 36.5703 95.7754 36.1123 94.1895 35.1963C92.6035 34.2666 91.3457 33.0088 90.416 31.4229C89.5 29.8369 89.042 28.1074 89.042 26.2344C89.042 24.3613 89.5 22.6318 90.416 21.0459C91.3457 19.46 92.6035 18.209 94.1895 17.293C95.7754 16.3633 97.5049 15.8984 99.3779 15.8984C100.978 15.8984 102.481 16.2471 103.89 16.9443C105.312 17.6279 106.501 18.5781 107.458 19.7949ZM109.775 17.9492L108.627 18.8721C107.52 17.4912 106.159 16.4043 104.546 15.6113C102.933 14.8184 101.21 14.4219 99.3779 14.4219C97.7783 14.4219 96.2471 14.7363 94.7842 15.3652C93.335 15.9805 92.0771 16.8213 91.0107 17.8877C89.958 18.9404 89.1172 20.1982 88.4883 21.6611C87.873 23.1104 87.5654 24.6348 87.5654 26.2344C87.5654 27.834 87.873 29.3652 88.4883 30.8281C89.1172 32.2773 89.958 33.5352 91.0107 34.6016C92.0771 35.6543 93.335 36.4951 94.7842 37.124C96.2471 37.7393 97.7783 38.0469 99.3779 38.0469C101.21 38.0469 102.933 37.6504 104.546 36.8574C106.159 36.0645 107.52 34.9775 108.627 33.5967L109.734 34.5605C108.49 36.1055 106.966 37.3223 105.161 38.2109C103.356 39.0859 101.429 39.5234 99.3779 39.5234C97.5732 39.5234 95.8506 39.1748 94.21 38.4775C92.5693 37.7666 91.1543 36.8232 89.9648 35.6475C88.7891 34.458 87.8457 33.043 87.1348 31.4023C86.4375 29.7617 86.0889 28.0391 86.0889 26.2344C86.0889 24.4297 86.4375 22.707 87.1348 21.0664C87.8457 19.4258 88.7891 18.0176 89.9648 16.8418C91.1543 15.6523 92.5693 14.709 94.21 14.0117C95.8506 13.3008 97.5732 12.9453 99.3779 12.9453C101.442 12.9453 103.377 13.3896 105.182 14.2783C107 15.167 108.531 16.3906 109.775 17.9492ZM112.072 16.1035L110.883 16.9854C109.502 15.2764 107.807 13.9297 105.797 12.9453C103.801 11.9609 101.661 11.4688 99.3779 11.4688C97.3818 11.4688 95.4678 11.8584 93.6357 12.6377C91.8174 13.417 90.2451 14.4697 88.9189 15.7959C87.6064 17.1084 86.5605 18.6807 85.7812 20.5127C85.002 22.3311 84.6123 24.2383 84.6123 26.2344C84.6123 28.2305 85.002 30.1445 85.7812 31.9766C86.5605 33.7949 87.6064 35.3672 88.9189 36.6934C90.2451 38.0059 91.8174 39.0518 93.6357 39.8311C95.4678 40.6104 97.3818 41 99.3779 41C101.661 41 103.801 40.5078 105.797 39.5234C107.807 38.5391 109.502 37.1924 110.883 35.4834L112.052 36.3857C110.534 38.2725 108.668 39.7627 106.453 40.8564C104.252 41.9365 101.894 42.4766 99.3779 42.4766C97.1768 42.4766 95.0713 42.0459 93.0615 41.1846C91.0654 40.3232 89.3428 39.168 87.8936 37.7188C86.4443 36.2695 85.2891 34.5469 84.4277 32.5508C83.5664 30.541 83.1357 28.4355 83.1357 26.2344C83.1357 24.0332 83.5664 21.9346 84.4277 19.9385C85.2891 17.9287 86.4443 16.1992 87.8936 14.75C89.3428 13.3008 91.0654 12.1455 93.0615 11.2842C95.0713 10.4229 97.1768 9.99219 99.3779 9.99219C101.894 9.99219 104.259 10.5391 106.474 11.6328C108.688 12.7129 110.555 14.2031 112.072 16.1035Z" fill="#E4E4E4"/>
<path d="M41.5 63.8857C41.9167 63.8857 42.2708 63.7399 42.5625 63.4482C42.8542 63.1566 43 62.8024 43 62.3857C43 61.9691 42.8542 61.6149 42.5625 61.3232C42.2708 61.0316 41.9167 60.8857 41.5 60.8857C41.0833 60.8857 40.7292 61.0316 40.4375 61.3232C40.1458 61.6149 40 61.9691 40 62.3857C40 62.8024 40.1458 63.1566 40.4375 63.4482C40.7292 63.7399 41.0833 63.8857 41.5 63.8857ZM41.5 66.8857C42.0167 66.8857 42.4917 66.7649 42.925 66.5232C43.3583 66.2816 43.7083 65.9607 43.975 65.5607C43.6083 65.3441 43.2167 65.1774 42.8 65.0607C42.3833 64.9441 41.95 64.8857 41.5 64.8857C41.05 64.8857 40.6167 64.9441 40.2 65.0607C39.7833 65.1774 39.3917 65.3441 39.025 65.5607C39.2917 65.9607 39.6417 66.2816 40.075 66.5232C40.5083 66.7649 40.9833 66.8857 41.5 66.8857ZM36.5 68.8857C34.1833 68.3024 32.2708 66.9732 30.7625 64.8982C29.2542 62.8232 28.5 60.5191 28.5 57.9857V51.8857L36.5 48.8857L44.5 51.8857V57.5607C44.1833 57.4274 43.8583 57.3066 43.525 57.1982C43.1917 57.0899 42.85 57.0107 42.5 56.9607V53.2857L36.5 51.0357L30.5 53.2857V57.9857C30.5 58.7691 30.6042 59.5524 30.8125 60.3357C31.0208 61.1191 31.3125 61.8649 31.6875 62.5732C32.0625 63.2816 32.5167 63.9357 33.05 64.5357C33.5833 65.1357 34.175 65.6357 34.825 66.0357C35.0083 66.5691 35.25 67.0774 35.55 67.5607C35.85 68.0441 36.1917 68.4774 36.575 68.8607C36.5583 68.8607 36.5458 68.8649 36.5375 68.8732C36.5292 68.8816 36.5167 68.8857 36.5 68.8857ZM41.5 68.8857C40.1167 68.8857 38.9375 68.3982 37.9625 67.4232C36.9875 66.4482 36.5 65.2691 36.5 63.8857C36.5 62.5024 36.9875 61.3232 37.9625 60.3482C38.9375 59.3732 40.1167 58.8857 41.5 58.8857C42.8833 58.8857 44.0625 59.3732 45.0375 60.3482C46.0125 61.3232 46.5 62.5024 46.5 63.8857C46.5 65.2691 46.0125 66.4482 45.0375 67.4232C44.0625 68.3982 42.8833 68.8857 41.5 68.8857Z" fill="#E4E4E4"/>
<path d="M51.7175 56.7897V64.8857H53.7335V61.2057H56.8375V59.3817H53.7335V57.4937H56.8375V55.6857H53.5415L51.7175 56.7897ZM62.7415 56.7897V64.8857H60.7255V61.2057H57.5575V59.3817H60.7255V57.4937H57.5575V55.6857H60.8535L62.7415 56.7897ZM65.6156 55.6857H70.7356V57.4937H67.6316V63.0137H70.7356V64.8857H65.6156V55.6857ZM76.6396 56.7897L74.8316 55.6857H71.5196V57.4937H74.6236V63.0137H71.5196V64.8857H74.8316L76.6396 63.7977V56.7897ZM79.5219 55.6857H81.3459L84.6419 58.7897V61.2057L81.5379 58.2777V64.8857H79.5219V55.6857ZM90.5459 55.6857H88.7379L85.4259 58.7897V61.2057L88.5299 58.2777V64.8857H90.5459V55.6857ZM93.4206 55.6857H95.4366V64.8857H93.4206V55.6857ZM98.3188 55.6857H100.143L103.439 58.7897V61.2057L100.335 58.2137V64.8857H98.3188V55.6857ZM107.327 62.2937V55.6857H109.343V64.8857H107.455L104.159 61.7177V59.3817L107.327 62.2937Z" fill="#E4E4E4"/>
</svg>
